<svg xmlns="http://www.w3.org/2000/svg" xmlns:xlink="http://www.w3.org/1999/xlink" width="195.583" height="60" viewBox="0 0 195.583 60">
  <defs>
    <clipPath id="clip-path">
      <rect id="Rectangle_127" data-name="Rectangle 127" width="195.583" height="60" fill="none"/>
    </clipPath>
  </defs>
  <g id="schneller-termine-logo-final-RGB-Pfade-fuer-tuerkis" clip-path="url(#clip-path)">
    <path id="Path_125" data-name="Path 125" d="M280.954,49.664a4.485,4.485,0,0,0,2.165-.442,1.448,1.448,0,0,0,.8-1.353,1.481,1.481,0,0,0-.513-1.182,8.376,8.376,0,0,0-1.795-1.04q-.684-.313-1.268-.655a4.473,4.473,0,0,1-1.011-.8,3.544,3.544,0,0,1-.684-1.068,3.789,3.789,0,0,1-.256-1.467,4.3,4.3,0,0,1,1.624-3.533,7.334,7.334,0,0,1,4.7-1.311,9.946,9.946,0,0,1,2.55.3,7.888,7.888,0,0,1,1.7.613L287.735,40.4a6.559,6.559,0,0,0-1.4-.556,6.677,6.677,0,0,0-1.909-.27,5.323,5.323,0,0,0-.954.085,2.849,2.849,0,0,0-.841.285,1.717,1.717,0,0,0-.613.556,1.508,1.508,0,0,0-.242.869,1.3,1.3,0,0,0,.527,1.068,7.736,7.736,0,0,0,1.524.869,15.177,15.177,0,0,1,1.6.826,4.481,4.481,0,0,1,1.083.9,3.235,3.235,0,0,1,.627,1.111,4.775,4.775,0,0,1,.2,1.467,4.479,4.479,0,0,1-.427,1.952A4.3,4.3,0,0,1,285.67,51.1a6.137,6.137,0,0,1-2.009,1.012,9.268,9.268,0,0,1-2.735.37,11.415,11.415,0,0,1-1.895-.142,12.867,12.867,0,0,1-1.467-.328,7.633,7.633,0,0,1-1.054-.385,6.286,6.286,0,0,1-.655-.342l1.225-2.707q.2.114.584.3a7.951,7.951,0,0,0,.883.356,9.312,9.312,0,0,0,1.111.3,6.3,6.3,0,0,0,1.3.128" transform="translate(-197.258 -26.324)" fill="#4170e6"/>
    <path id="Path_126" data-name="Path 126" d="M324.852,46.443a11.087,11.087,0,0,1,.612-3.69,9.442,9.442,0,0,1,1.752-3.077,8.185,8.185,0,0,1,2.792-2.094,8.811,8.811,0,0,1,3.761-.769,10.419,10.419,0,0,1,2.037.185,8.255,8.255,0,0,1,1.752.556l-1.225,2.764a7.994,7.994,0,0,0-1.14-.4,5.936,5.936,0,0,0-1.539-.171,4.815,4.815,0,0,0-2.208.5A5.015,5.015,0,0,0,329.78,41.6a6.2,6.2,0,0,0-1.054,2.023,8.143,8.143,0,0,0-.37,2.479,5.438,5.438,0,0,0,.157,1.353,3,3,0,0,0,.513,1.083,2.284,2.284,0,0,0,.983.727,4.158,4.158,0,0,0,1.567.256,6.759,6.759,0,0,0,1.866-.256,7.455,7.455,0,0,0,1.382-.513l.285,2.821a10.8,10.8,0,0,1-1.738.613,9.209,9.209,0,0,1-2.45.3,7.076,7.076,0,0,1-2.707-.47,5.3,5.3,0,0,1-1.895-1.282,5.056,5.056,0,0,1-1.111-1.909,7.658,7.658,0,0,1-.356-2.379" transform="translate(-232.294 -26.323)" fill="#4170e6"/>
    <path id="Path_127" data-name="Path 127" d="M368.352,34.926l5.157-21.54,3.59-.57-1.753,7.322q.57-.142,1.237-.271a7.021,7.021,0,0,1,1.322-.128,5.812,5.812,0,0,1,2.147.356,4.008,4.008,0,0,1,1.479.983,3.83,3.83,0,0,1,.853,1.51,6.51,6.51,0,0,1,.27,1.909,10.684,10.684,0,0,1-.342,2.593l-1.88,7.835h-3.444l1.792-7.465q.142-.655.285-1.339a6.316,6.316,0,0,0,.142-1.282,2.5,2.5,0,0,0-.5-1.582,2.3,2.3,0,0,0-1.9-.641,6.623,6.623,0,0,0-1.141.1,8.312,8.312,0,0,0-1.027.242l-2.836,11.967Z" transform="translate(-263.401 -9.164)" fill="#4170e6"/>
    <path id="Path_128" data-name="Path 128" d="M428.07,37.955q1.14-.342,2.607-.641a16.062,16.062,0,0,1,3.205-.3,5.107,5.107,0,0,1,3.846,1.282,4.783,4.783,0,0,1,1.225,3.448,8.637,8.637,0,0,1-.1,1.268q-.1.67-.242,1.382l-1.88,7.835h-3.443l1.763-7.465q.143-.627.285-1.282a7.635,7.635,0,0,0,.171-1.254,2.532,2.532,0,0,0-.47-1.653,2.349,2.349,0,0,0-1.952-.655,7.617,7.617,0,0,0-2.108.256L428.119,52.23h-3.468Z" transform="translate(-303.659 -26.468)" fill="#4170e6"/>
    <path id="Path_129" data-name="Path 129" d="M483.35,46.7a11.255,11.255,0,0,1,.613-3.69,9.92,9.92,0,0,1,1.767-3.163,8.764,8.764,0,0,1,2.778-2.208,7.928,7.928,0,0,1,3.647-.826,4.755,4.755,0,0,1,3.362,1.111,3.717,3.717,0,0,1,1.2,2.849,4.531,4.531,0,0,1-.883,2.906,5.961,5.961,0,0,1-2.294,1.738,11.379,11.379,0,0,1-3.191.855q-1.781.228-3.6.285a.248.248,0,0,0-.029.114v.285q0,2.593,3.277,2.593a10.111,10.111,0,0,0,3.875-.8l.285,2.792a11.582,11.582,0,0,1-1.937.627,11.79,11.79,0,0,1-2.849.313,7.364,7.364,0,0,1-2.735-.456,4.965,4.965,0,0,1-1.866-1.254,5.021,5.021,0,0,1-1.068-1.838,7.117,7.117,0,0,1-.342-2.236m8.291-7.066a3.953,3.953,0,0,0-1.624.342,4.51,4.51,0,0,0-1.368.94,6.1,6.1,0,0,0-1.04,1.41,6.415,6.415,0,0,0-.641,1.753,13.867,13.867,0,0,0,4.972-.826,2.285,2.285,0,0,0,1.553-2.137,1.49,1.49,0,0,0-.413-1.026,1.879,1.879,0,0,0-1.439-.456" transform="translate(-345.634 -26.325)" fill="#4170e6"/>
    <path id="Path_130" data-name="Path 130" d="M541.236,35.21a7.64,7.64,0,0,1-2.265-.342,3.852,3.852,0,0,1-1.482-.855,3.109,3.109,0,0,1-.8-1.282,5.2,5.2,0,0,1-.242-1.624,9.318,9.318,0,0,1,.214-1.923q.214-1.011.47-2.009l3.305-13.79,3.59-.57q-.889,3.732-1.779,7.422t-1.808,7.422q-.135.6-.3,1.182A4.316,4.316,0,0,0,539.983,30q0,.484.014.9a1.271,1.271,0,0,0,.228.712,1.591,1.591,0,0,0,.641.5,3.307,3.307,0,0,0,1.111.256Z" transform="translate(-383.604 -9.164)" fill="#4170e6"/>
    <path id="Path_131" data-name="Path 131" d="M571.035,35.21a7.64,7.64,0,0,1-2.265-.342,3.851,3.851,0,0,1-1.482-.855,3.108,3.108,0,0,1-.8-1.282,5.19,5.19,0,0,1-.242-1.624,9.318,9.318,0,0,1,.214-1.923q.214-1.011.47-2.009l3.305-13.79,3.59-.57q-.889,3.732-1.779,7.422t-1.808,7.422q-.135.6-.3,1.182A4.316,4.316,0,0,0,569.782,30q0,.484.014.9a1.272,1.272,0,0,0,.228.712,1.592,1.592,0,0,0,.641.5,3.307,3.307,0,0,0,1.111.256Z" transform="translate(-404.912 -9.164)" fill="#4170e6"/>
    <path id="Path_132" data-name="Path 132" d="M594.348,46.7a11.254,11.254,0,0,1,.613-3.69,9.92,9.92,0,0,1,1.766-3.163,8.765,8.765,0,0,1,2.778-2.208,7.929,7.929,0,0,1,3.647-.826,4.755,4.755,0,0,1,3.362,1.111,3.717,3.717,0,0,1,1.2,2.849,4.531,4.531,0,0,1-.883,2.906,5.961,5.961,0,0,1-2.294,1.738,11.378,11.378,0,0,1-3.191.855q-1.781.228-3.6.285a.248.248,0,0,0-.029.114v.285q0,2.593,3.277,2.593a10.111,10.111,0,0,0,3.875-.8l.285,2.792a11.582,11.582,0,0,1-1.937.627,11.79,11.79,0,0,1-2.849.313,7.363,7.363,0,0,1-2.735-.456,4.964,4.964,0,0,1-1.866-1.254,5.021,5.021,0,0,1-1.068-1.838,7.116,7.116,0,0,1-.342-2.236m8.291-7.066a3.953,3.953,0,0,0-1.624.342,4.511,4.511,0,0,0-1.368.94,6.1,6.1,0,0,0-1.04,1.41,6.415,6.415,0,0,0-.641,1.753,13.868,13.868,0,0,0,4.972-.826,2.285,2.285,0,0,0,1.553-2.137,1.49,1.49,0,0,0-.413-1.026,1.88,1.88,0,0,0-1.439-.456" transform="translate(-425.006 -26.325)" fill="#4170e6"/>
    <path id="Path_133" data-name="Path 133" d="M655.274,40.377a7.81,7.81,0,0,0-1.229-.313,9.208,9.208,0,0,0-1.544-.114,7.961,7.961,0,0,0-1.029.071,5.767,5.767,0,0,0-.915.185L647.7,52.229h-3.448l3.419-14.218a24.352,24.352,0,0,1,2.593-.7,14.408,14.408,0,0,1,3.02-.3q.342,0,.769.043t.841.1q.412.057.769.142a3.591,3.591,0,0,1,.613.2Z" transform="translate(-460.688 -26.468)" fill="#4170e6"/>
    <path id="Path_134" data-name="Path 134" d="M278.452,122.886l3.448-.57v4.5h5.3V129.7h-5.3v6.069a4.41,4.41,0,0,0,.57,2.564,2.256,2.256,0,0,0,1.937.769,6.311,6.311,0,0,0,1.667-.2,11.137,11.137,0,0,0,1.154-.37l.57,2.735a12.944,12.944,0,0,1-1.567.527,8.54,8.54,0,0,1-2.279.271,7.212,7.212,0,0,1-2.664-.427,3.925,3.925,0,0,1-1.7-1.239,4.911,4.911,0,0,1-.883-1.966,12.213,12.213,0,0,1-.256-2.636Z" transform="translate(-199.115 -87.466)" fill="#fff"/>
    <path id="Path_135" data-name="Path 135" d="M317.05,144.708a9.363,9.363,0,0,1,.584-3.448,7.237,7.237,0,0,1,1.553-2.465,6.426,6.426,0,0,1,2.222-1.482,6.885,6.885,0,0,1,2.564-.5,6.139,6.139,0,0,1,4.8,1.909q1.724,1.909,1.724,5.7,0,.285-.014.641t-.043.641h-9.83a3.93,3.93,0,0,0,1.268,2.778,4.818,4.818,0,0,0,3.263.983,10.716,10.716,0,0,0,2.293-.228,9.415,9.415,0,0,0,1.638-.484l.456,2.821a5.465,5.465,0,0,1-.784.3,11.052,11.052,0,0,1-1.14.285q-.641.128-1.382.214a13.169,13.169,0,0,1-1.51.085,9.142,9.142,0,0,1-3.419-.584,6.358,6.358,0,0,1-2.393-1.624,6.652,6.652,0,0,1-1.4-2.45,10,10,0,0,1-.456-3.091m10-1.539a4.547,4.547,0,0,0-.2-1.353,3.272,3.272,0,0,0-.584-1.111,2.768,2.768,0,0,0-.94-.741,3,3,0,0,0-1.325-.271,3.086,3.086,0,0,0-1.4.3,3.181,3.181,0,0,0-1.011.784,3.582,3.582,0,0,0-.641,1.111,6.012,6.012,0,0,0-.313,1.282Z" transform="translate(-226.715 -97.834)" fill="#fff"/>
    <path id="Path_136" data-name="Path 136" d="M385.546,140.434a11.049,11.049,0,0,0-1.182-.3,8.738,8.738,0,0,0-1.753-.157,6.948,6.948,0,0,0-1.211.114,7.227,7.227,0,0,0-.9.2v11.938h-3.448V138.04a19.018,19.018,0,0,1,2.493-.7,15.572,15.572,0,0,1,3.32-.327q.342,0,.8.042t.912.114q.456.071.883.171t.684.185Z" transform="translate(-269.624 -97.976)" fill="#fff"/>
    <path id="Path_137" data-name="Path 137" d="M425.846,144.386a7.258,7.258,0,0,0-.584-3.376,2.277,2.277,0,0,0-2.18-1.04,10.225,10.225,0,0,0-1.254.085q-.684.085-1.026.142v12.024h-3.448V137.8a23.08,23.08,0,0,1,2.607-.541,21.637,21.637,0,0,1,3.4-.256,6.781,6.781,0,0,1,2.522.4,4.886,4.886,0,0,1,1.638,1.054,6.727,6.727,0,0,1,.8-.484,8.227,8.227,0,0,1,1.083-.47,9.906,9.906,0,0,1,1.268-.356,6.491,6.491,0,0,1,1.353-.142,7.109,7.109,0,0,1,2.863.5,4.207,4.207,0,0,1,1.767,1.4,5.435,5.435,0,0,1,.883,2.165,14.866,14.866,0,0,1,.242,2.778v8.377h-3.448v-7.835a7.416,7.416,0,0,0-.57-3.376,2.273,2.273,0,0,0-2.194-1.04,4.53,4.53,0,0,0-1.567.271,5.1,5.1,0,0,0-1.111.527,7.631,7.631,0,0,1,.313,1.51,16.081,16.081,0,0,1,.085,1.71v8.234h-3.448Z" transform="translate(-298.442 -97.968)" fill="#fff"/>
    <path id="Path_138" data-name="Path 138" d="M506.692,117.452a1.977,1.977,0,0,1-.627,1.539,2.128,2.128,0,0,1-1.482.57,2.163,2.163,0,0,1-1.51-.57,1.975,1.975,0,0,1-.627-1.539,2.01,2.01,0,0,1,.627-1.567,2.165,2.165,0,0,1,1.51-.57,2.131,2.131,0,0,1,1.482.57,2.013,2.013,0,0,1,.627,1.567m-.37,19.261h-3.448v-14.9h3.448Z" transform="translate(-359.288 -82.459)" fill="#fff"/>
    <path id="Path_139" data-name="Path 139" d="M531.453,137.805a23.111,23.111,0,0,1,2.593-.541,22.353,22.353,0,0,1,3.533-.256,8.13,8.13,0,0,1,3.049.5,4.76,4.76,0,0,1,1.952,1.4,5.328,5.328,0,0,1,1.026,2.165,12.083,12.083,0,0,1,.3,2.778v8.377h-3.448v-7.835a11.361,11.361,0,0,0-.157-2.037,3.619,3.619,0,0,0-.513-1.368,2.054,2.054,0,0,0-.969-.769,4.086,4.086,0,0,0-1.5-.242,11.536,11.536,0,0,0-1.368.085q-.712.085-1.054.142v12.024h-3.448Z" transform="translate(-380.031 -97.969)" fill="#fff"/>
    <path id="Path_140" data-name="Path 140" d="M587.046,144.708a9.363,9.363,0,0,1,.584-3.448,7.233,7.233,0,0,1,1.552-2.465,6.424,6.424,0,0,1,2.222-1.482,6.883,6.883,0,0,1,2.564-.5,6.138,6.138,0,0,1,4.8,1.909q1.724,1.909,1.724,5.7,0,.285-.014.641t-.043.641h-9.83a3.929,3.929,0,0,0,1.268,2.778,4.818,4.818,0,0,0,3.262.983,10.72,10.72,0,0,0,2.294-.228,9.423,9.423,0,0,0,1.638-.484l.456,2.821a5.472,5.472,0,0,1-.784.3,11.07,11.07,0,0,1-1.14.285q-.641.128-1.382.214a13.17,13.17,0,0,1-1.51.085,9.141,9.141,0,0,1-3.419-.584,6.36,6.36,0,0,1-2.393-1.624,6.657,6.657,0,0,1-1.4-2.45,10.01,10.01,0,0,1-.456-3.091m10-1.539a4.548,4.548,0,0,0-.2-1.353,3.267,3.267,0,0,0-.584-1.111,2.767,2.767,0,0,0-.94-.741,3,3,0,0,0-1.325-.271,3.086,3.086,0,0,0-1.4.3,3.176,3.176,0,0,0-1.011.784,3.571,3.571,0,0,0-.641,1.111,6.012,6.012,0,0,0-.313,1.282Z" transform="translate(-419.784 -97.834)" fill="#fff"/>
    <path id="Path_141" data-name="Path 141" d="M41.254,82.652H35a1.361,1.361,0,0,1-1.357-1.357V74.656A1.361,1.361,0,0,1,35,73.3h6.639a1.353,1.353,0,0,1,1.063.525,16.531,16.531,0,0,1,6.242-7V61.081A1.361,1.361,0,0,1,50.3,59.722h6.639A1.362,1.362,0,0,1,58.3,61.08v3.3a16.31,16.31,0,0,1,6.988,1.91c-.553-6.268-1.764-11.778-3.215-13.12-3.6-3.327-42.269,1.494-46.681,4.16S9.4,79.946,12.333,83.419c1.767,2.094,17.4,4.331,30.8,5.192a16.305,16.305,0,0,1-1.876-5.96m-7.614-21.57A1.361,1.361,0,0,1,35,59.722h6.639a1.362,1.362,0,0,1,1.358,1.358v6.639a1.361,1.361,0,0,1-1.358,1.357H35a1.361,1.361,0,0,1-1.357-1.357ZM27.694,81.294a1.361,1.361,0,0,1-1.357,1.357H19.7a1.361,1.361,0,0,1-1.357-1.357V74.656A1.361,1.361,0,0,1,19.7,73.3h6.639a1.361,1.361,0,0,1,1.357,1.357Zm0-13.575a1.361,1.361,0,0,1-1.357,1.357H19.7a1.361,1.361,0,0,1-1.357-1.357V61.081A1.361,1.361,0,0,1,19.7,59.722h6.639a1.361,1.361,0,0,1,1.357,1.358Z" transform="translate(-7.752 -37.214)" fill="#1bc4eb"/>
    <path id="Path_142" data-name="Path 142" d="M45.157,79H38.519a1.361,1.361,0,0,0-1.358,1.357V87a1.362,1.362,0,0,0,1.358,1.358h6.639A1.362,1.362,0,0,0,46.515,87V80.357A1.361,1.361,0,0,0,45.157,79" transform="translate(-26.573 -56.491)" fill="#fff"/>
    <path id="Path_143" data-name="Path 143" d="M92.221,88.355h6.639A1.361,1.361,0,0,0,100.217,87V80.359A1.361,1.361,0,0,0,98.859,79H92.22a1.361,1.361,0,0,0-1.357,1.357V87a1.361,1.361,0,0,0,1.357,1.357" transform="translate(-64.974 -56.491)" fill="#4170e6"/>
    <path id="Path_144" data-name="Path 144" d="M45.157,126.648H38.519a1.361,1.361,0,0,0-1.358,1.357v6.639A1.361,1.361,0,0,0,38.519,136h6.639a1.361,1.361,0,0,0,1.357-1.357v-6.639a1.361,1.361,0,0,0-1.357-1.357" transform="translate(-26.573 -90.563)" fill="#4170e6"/>
    <path id="Path_145" data-name="Path 145" d="M141.8,106.722a13.168,13.168,0,1,0,13.167,13.167A13.168,13.168,0,0,0,141.8,106.722m6.647,6.417a1.8,1.8,0,0,1,.494,2.49L142,126.008a1.8,1.8,0,0,1-2.435.529l-4.2-2.594a1.8,1.8,0,0,1,1.886-3.055l2.729,1.685,5.981-8.94a1.8,1.8,0,0,1,2.49-.494" transform="translate(-91.986 -76.315)" fill="#1bc4eb"/>
    <path id="Path_146" data-name="Path 146" d="M60.79,31.364c-.212-11.578-1.84-23.612-3.9-26.029-1.237-1.448-6.211-1.8-12.633-1.479V2.844a2.844,2.844,0,0,0-5.688,0V4.271c-5.26.491-10.968,1.287-16.178,2.209V5.559a2.844,2.844,0,0,0-5.688,0V7.581C10.919,8.8,6.444,10.115,5.05,11.18.15,14.925-1.6,42.964,1.658,47.844c2.073,3.11,21.346,6.445,36.7,7.483A16.413,16.413,0,1,0,60.793,31.361M49.819,56.742A13.168,13.168,0,1,1,62.986,43.575,13.168,13.168,0,0,1,49.819,56.742M7.636,20.117c4.413-2.666,43.085-7.487,46.681-4.16,1.451,1.342,2.662,6.851,3.215,13.12a16.306,16.306,0,0,0-6.988-1.909v-3.3a1.362,1.362,0,0,0-1.358-1.359H42.547a1.361,1.361,0,0,0-1.357,1.358v5.739a16.531,16.531,0,0,0-6.242,7,1.353,1.353,0,0,0-1.063-.525H27.246a1.361,1.361,0,0,0-1.357,1.358V44.08a1.361,1.361,0,0,0,1.357,1.357H33.5a16.305,16.305,0,0,0,1.876,5.96c-13.394-.86-29.031-3.1-30.8-5.192-2.93-3.472-1.358-23.423,3.055-26.088" transform="translate(0 0)" fill="#4170e6"/>
    <path id="Path_147" data-name="Path 147" d="M154.728,137.919,152,136.233a1.8,1.8,0,1,0-1.886,3.055l4.2,2.594a1.8,1.8,0,0,0,2.435-.529l6.944-10.379a1.795,1.795,0,1,0-2.984-2Z" transform="translate(-106.734 -91.66)" fill="#fff"/>
  </g>
</svg>
