<svg xmlns="http://www.w3.org/2000/svg" width="19.086" height="19.121" viewBox="0 0 19.086 19.121">
  <path id="Icon_feather-phone" data-name="Icon feather-phone" d="M20.252,15.817v2.577a1.718,1.718,0,0,1-1.873,1.718,17,17,0,0,1-7.413-2.637A16.751,16.751,0,0,1,5.812,12.32,17,17,0,0,1,3.175,4.873,1.718,1.718,0,0,1,4.884,3H7.461A1.718,1.718,0,0,1,9.179,4.477a11.03,11.03,0,0,0,.6,2.414A1.718,1.718,0,0,1,9.394,8.7L8.3,9.795a13.745,13.745,0,0,0,5.154,5.154l1.091-1.091a1.718,1.718,0,0,1,1.813-.387,11.03,11.03,0,0,0,2.414.6,1.718,1.718,0,0,1,1.478,1.744Z" transform="translate(-2.167 -2)" fill="none" stroke="#fff" stroke-linecap="round" stroke-linejoin="round" stroke-width="2"/>
</svg>
